<?xml version="1.0" encoding="UTF-8"?>
<svg xmlns="http://www.w3.org/2000/svg" xmlns:xlink="http://www.w3.org/1999/xlink" width="16px" height="16px" viewBox="0 0 16 16" version="1.1">
<defs>
<clipPath id="clip1">
  <path d="M 1 0.0390625 L 15 0.0390625 L 15 16 L 1 16 Z M 1 0.0390625 "/>
</clipPath>
</defs>
<g id="surface1">
<path style=" stroke:none;fill-rule:nonzero;fill:rgb(0%,0%,0%);fill-opacity:1;" d="M 5.640625 9.671875 C 5.507812 9.675781 5.378906 9.621094 5.285156 9.527344 L 4.078125 8.320312 C 3.984375 8.226562 3.929688 8.101562 3.929688 7.964844 C 3.929688 7.832031 3.984375 7.707031 4.078125 7.613281 L 5.414062 6.28125 C 5.609375 6.085938 5.925781 6.085938 6.121094 6.28125 C 6.316406 6.476562 6.316406 6.792969 6.121094 6.988281 L 5.140625 8 L 6 8.820312 C 6.195312 9.015625 6.195312 9.332031 6 9.527344 C 5.90625 9.621094 5.773438 9.675781 5.640625 9.671875 Z M 5.640625 9.671875 "/>
<path style=" stroke:none;fill-rule:nonzero;fill:rgb(0%,0%,0%);fill-opacity:1;" d="M 10.359375 9.671875 C 10.226562 9.675781 10.101562 9.621094 10.007812 9.527344 C 9.8125 9.332031 9.8125 9.015625 10.007812 8.820312 L 10.859375 8 L 9.90625 7.046875 C 9.710938 6.851562 9.710938 6.535156 9.90625 6.339844 C 10.101562 6.144531 10.417969 6.144531 10.613281 6.339844 L 11.945312 7.671875 C 12.042969 7.765625 12.097656 7.894531 12.097656 8.027344 C 12.097656 8.160156 12.042969 8.289062 11.945312 8.378906 L 10.738281 9.585938 C 10.628906 9.667969 10.492188 9.699219 10.359375 9.671875 Z M 10.359375 9.671875 "/>
<path style=" stroke:none;fill-rule:nonzero;fill:rgb(0%,0%,0%);fill-opacity:1;" d="M 7.332031 10.292969 C 7.277344 10.304688 7.21875 10.304688 7.160156 10.292969 C 7.027344 10.25 6.921875 10.152344 6.867188 10.023438 C 6.8125 9.898438 6.8125 9.753906 6.867188 9.625 L 8.226562 5.867188 C 8.273438 5.738281 8.371094 5.632812 8.496094 5.574219 C 8.621094 5.519531 8.765625 5.519531 8.894531 5.574219 C 9.023438 5.617188 9.132812 5.714844 9.1875 5.84375 C 9.242188 5.96875 9.242188 6.113281 9.1875 6.238281 L 7.773438 10 C 7.691406 10.171875 7.523438 10.285156 7.332031 10.292969 Z M 7.332031 10.292969 "/>
<g clip-path="url(#clip1)" clip-rule="nonzero">
<path style=" stroke:none;fill-rule:nonzero;fill:rgb(0%,0%,0%);fill-opacity:1;" d="M 11.5 15.167969 L 4.5 15.167969 C 3.027344 15.167969 1.832031 13.972656 1.832031 12.5 L 1.832031 3.5 C 1.832031 2.027344 3.027344 0.832031 4.5 0.832031 L 11.5 0.832031 C 12.972656 0.832031 14.167969 2.027344 14.167969 3.5 L 14.167969 12.5 C 14.167969 13.972656 12.972656 15.167969 11.5 15.167969 Z M 4.5 1.832031 C 3.578125 1.832031 2.832031 2.578125 2.832031 3.5 L 2.832031 12.5 C 2.832031 13.421875 3.578125 14.167969 4.5 14.167969 L 11.5 14.167969 C 12.421875 14.167969 13.167969 13.421875 13.167969 12.5 L 13.167969 3.5 C 13.167969 2.578125 12.421875 1.832031 11.5 1.832031 Z M 4.5 1.832031 "/>
</g>
</g>
</svg>
