<svg width="24px" height="24px" viewBox="0 0 24 24" id="Layer_1" data-name="Layer 1" xmlns="http://www.w3.org/2000/svg" xmlns:xlink="http://www.w3.org/1999/xlink"><defs><style>.cls-1{fill:none;}.cls-2{clip-path:url(#clip-path);}</style><clipPath id="clip-path"><rect class="cls-1" x="-0.15" y="0.06" width="24" height="24"/></clipPath></defs><title>box-code</title><g class="cls-2"><path d="M8.46,14.51a.74.74,0,0,1-.53-.22L6.12,12.48a.74.74,0,0,1,0-1.06l2-2a.75.75,0,0,1,1.06,0,.75.75,0,0,1,0,1.06L7.71,12,9,13.23a.75.75,0,0,1,0,1.06A.74.74,0,0,1,8.46,14.51Z"/><path d="M15.54,14.51a.74.74,0,0,1-.53-.22.75.75,0,0,1,0-1.06L16.29,12l-1.43-1.43a.75.75,0,0,1,0-1.06.75.75,0,0,1,1.06,0l2,2a.74.74,0,0,1,0,1.06l-1.81,1.81A.74.74,0,0,1,15.54,14.51Z"/><path d="M11,15.44a.63.63,0,0,1-.26,0,.74.74,0,0,1-.44-1L12.34,8.8a.75.75,0,0,1,1-.44.74.74,0,0,1,.44,1L11.66,15A.77.77,0,0,1,11,15.44Z"/><path d="M17.25,22.75H6.75a4,4,0,0,1-4-4V5.25a4,4,0,0,1,4-4h10.5a4,4,0,0,1,4,4v13.5A4,4,0,0,1,17.25,22.75Zm-10.5-20a2.5,2.5,0,0,0-2.5,2.5v13.5a2.5,2.5,0,0,0,2.5,2.5h10.5a2.5,2.5,0,0,0,2.5-2.5V5.25a2.5,2.5,0,0,0-2.5-2.5Z"/></g></svg>