<?xml version="1.0" encoding="UTF-8"?>
<svg xmlns="http://www.w3.org/2000/svg" xmlns:xlink="http://www.w3.org/1999/xlink" width="16px" height="16px" viewBox="0 0 16 16" version="1.1">
<g id="surface1">
<path style=" stroke:none;fill-rule:nonzero;fill:rgb(0%,0%,0%);fill-opacity:1;" d="M 14.671875 6.597656 L 9.539062 6.597656 L 9.539062 1.46875 C 9.539062 0.65625 8.886719 0 8.074219 0 C 7.261719 0 6.605469 0.65625 6.605469 1.46875 L 6.605469 6.601562 L 1.472656 6.601562 C 0.660156 6.601562 0 7.257812 0 8.070312 C 0 8.476562 0.164062 8.847656 0.429688 9.113281 C 0.695312 9.382812 1.0625 9.550781 1.46875 9.550781 L 6.605469 9.550781 L 6.605469 14.671875 C 6.605469 15.078125 6.769531 15.449219 7.035156 15.710938 C 7.300781 15.980469 7.667969 16.144531 8.070312 16.144531 C 8.882812 16.144531 9.539062 15.484375 9.539062 14.671875 L 9.539062 9.550781 L 14.671875 9.550781 C 15.484375 9.550781 16.140625 8.886719 16.140625 8.074219 C 16.140625 7.261719 15.484375 6.597656 14.671875 6.597656 Z M 14.671875 6.597656 "/>
</g>
</svg>
